<?xml version="1.0" encoding="UTF-8" standalone="no"?>
<!-- Created with Inkscape (http://www.inkscape.org/) -->

<svg
   xmlns:dc="http://purl.org/dc/elements/1.1/"
   xmlns:cc="http://creativecommons.org/ns#"
   xmlns:rdf="http://www.w3.org/1999/02/22-rdf-syntax-ns#"
   xmlns:svg="http://www.w3.org/2000/svg"
   xmlns="http://www.w3.org/2000/svg"
   xmlns:sodipodi="http://sodipodi.sourceforge.net/DTD/sodipodi-0.dtd"
   xmlns:inkscape="http://www.inkscape.org/namespaces/inkscape"
   version="1.1"
   id="svg4572"
   width="245.75999"
   height="245.75999"
   viewBox="0 0 245.75999 245.75999"
   sodipodi:docname="CashID.svg"
   inkscape:version="0.92.4 (unknown)">
  <metadata
     id="metadata4578">
    <rdf:RDF>
      <cc:Work
         rdf:about="">
        <dc:format>image/svg+xml</dc:format>
        <dc:type
           rdf:resource="http://purl.org/dc/dcmitype/StillImage" />
        <dc:title></dc:title>
      </cc:Work>
    </rdf:RDF>
  </metadata>
  <defs
     id="defs4576" />
  <sodipodi:namedview
     pagecolor="#ffffff"
     bordercolor="#666666"
     borderopacity="1"
     objecttolerance="10"
     gridtolerance="10"
     guidetolerance="10"
     inkscape:pageopacity="0"
     inkscape:pageshadow="2"
     inkscape:window-width="2560"
     inkscape:window-height="1404"
     id="namedview4574"
     showgrid="false"
     inkscape:zoom="13.391277"
     inkscape:cx="81.227521"
     inkscape:cy="16.100084"
     inkscape:window-x="0"
     inkscape:window-y="0"
     inkscape:window-maximized="1"
     inkscape:current-layer="g4582" />
  <g
     id="g4582"
     transform="translate(1.2464585,-1.8696875)">
    <path
       style="fill:#4ac645;stroke-width:0.31999999"
       d="m 25.919999,234.76461 c -7.308757,-1.95631 -13.010848,-7.71804 -14.871798,-15.02736 -0.440064,-1.72846 -0.484462,-12.38066 -0.410795,-98.56 L 10.72,24.555162 11.559301,22.397866 C 13.941453,16.27491 18.119746,12.096616 24.242703,9.714464 l 2.157296,-0.8393014 h 96.959991 96.96 l 2.1573,0.8393014 c 6.12295,2.382152 10.30125,6.560446 12.6834,12.683402 l 0.8393,2.157296 v 97.439998 97.43999 l -0.8393,2.1573 c -2.38215,6.12295 -6.56045,10.30125 -12.6834,12.6834 l -2.1573,0.8393 -96.32,0.0603 c -83.92931,0.0525 -96.546399,-3.3e-4 -98.079991,-0.41082 z"
       id="path4588"
       inkscape:connector-curvature="0" />
    <path
       style="fill:#194317;stroke-width:0.31999999"
       d="m 77.439997,235.38351 c 0,-0.16294 1.242057,-6.26728 1.6,-7.86352 0.138131,-0.616 0.570131,-2.632 0.96,-4.48 0.389869,-1.848 0.821869,-3.864 0.96,-4.48 0.138131,-0.616 0.570131,-2.632 0.96,-4.48 0.389868,-1.848 0.822835,-3.864 0.96215,-4.48 0.551613,-2.43902 1.039885,-4.70108 1.27785,-5.92 0.240448,-1.23165 0.704323,-3.37951 1.3131,-6.08 0.158704,-0.704 0.431808,-2 0.606899,-2.88 0.175092,-0.88 0.448196,-2.176 0.6069,-2.88 0.608777,-2.70049 1.072652,-4.84835 1.3131,-6.08 0.240448,-1.23165 0.704324,-3.37951 1.313101,-6.08 0.158704,-0.704 0.431808,-2 0.606899,-2.88 0.175092,-0.88 0.448196,-2.176 0.6069,-2.88 0.608777,-2.70049 1.072652,-4.84835 1.3131,-6.08 0.240448,-1.23164 0.704323,-3.37951 1.313101,-6.08 0.158704,-0.704 0.431808,-2 0.606899,-2.88 0.175091,-0.88 0.477591,-2.248 0.672224,-3.04 0.194634,-0.792 0.424218,-2.83505 0.510192,-4.54011 0.151453,-3.00369 0.124967,-3.15893 -0.851587,-4.99113 -0.717728,-1.34659 -2.01383,-2.83099 -4.501929,-5.15594 -5.465447,-5.10708 -8.299872,-8.8357 -11.532592,-15.17082 -0.915498,-1.7941 -1.707686,-3.31299 -1.760416,-3.37532 -0.05273,-0.0623 -0.92192,0.29082 -1.931529,0.78478 l -1.835658,0.8981 -2.094009,-1.11778 c -2.988663,-1.59535 -3.286637,-2.23079 -3.574948,-7.62378 -0.147683,-2.76251 -0.419075,-4.81414 -0.737689,-5.57669 -0.277226,-0.6635 -0.716858,-2.3282 -0.97696,-3.69934 -0.260099,-1.37113 -0.96559,-4.13524 -1.567757,-6.14247 -0.602166,-2.007222 -1.190563,-4.406963 -1.307549,-5.332758 -0.275619,-2.18119 0.248096,-4.158368 1.218602,-4.60056 1.135997,-0.517593 3.666921,0.946157 6.496019,3.756951 1.32591,1.317334 2.559235,2.345657 2.740723,2.285161 0.306342,-0.102115 0.592086,-1.070525 1.533827,-5.198288 1.022845,-4.483248 3.294826,-9.885212 6.098618,-14.500348 0.683331,-1.124784 1.242419,-2.32408 1.242419,-2.665104 0,-1.234141 2.146406,-4.810982 4.698083,-7.829046 0.846038,-1.000675 1.381916,-1.95312 1.381916,-2.45615 0,-1.211811 4.256346,-4.770307 10.110445,-8.452787 0.529558,-0.333114 0.54656,-0.428403 0.129555,-0.72608 -0.739814,-0.528112 0.2916,-1.148832 3.749454,-2.25648 4.87441,-1.561414 7.88951,-1.965725 16.09055,-2.15767 15.55133,-0.363978 17.91957,-0.178397 24.79999,1.943379 5.16907,1.594029 6.93744,2.415193 6.71441,3.117913 -0.14226,0.448208 0.47357,0.99633 2.84635,2.533427 3.61147,2.33953 4.1741,2.888948 2.95842,2.888948 -1.2038,0 -1.04985,0.347824 0.7673,1.733606 3.29061,2.509446 8.47176,8.797033 9.28865,11.272233 0.20145,0.6104 0.91155,2.007357 1.57799,3.104345 2.76449,4.550439 4.96888,9.800835 6.0668,14.449814 0.7515,3.182141 1.00334,3.976602 1.3232,4.174285 0.179,0.110634 1.14704,-0.655501 2.15117,-1.702522 2.23625,-2.331737 4.92502,-3.813273 6.01732,-3.315587 0.9705,0.442192 1.49422,2.41937 1.2186,4.60056 -0.11699,0.925795 -0.70538,3.325536 -1.30755,5.332758 -0.60216,2.00723 -1.30766,4.77134 -1.56775,6.14247 -0.26011,1.37114 -0.69974,3.03584 -0.97696,3.69934 -0.31862,0.76255 -0.59001,2.81418 -0.73769,5.57669 -0.2854,5.33845 -0.58663,5.99514 -3.47779,7.58163 l -2.01414,1.10523 -1.4436,-0.55132 c -0.79399,-0.30322 -1.48296,-0.50007 -1.53105,-0.43743 -0.0481,0.0626 -0.90814,1.67893 -1.91124,3.59176 -3.1001,5.91171 -5.76278,9.35447 -11.07134,14.31495 -4.57977,4.27948 -5.4511,5.82105 -5.4511,9.64422 0,1.4891 0.12847,3.12495 0.28548,3.63521 0.15701,0.51027 0.45671,1.79175 0.66599,2.84775 0.42745,2.15683 0.77342,3.8036 1.24374,5.92 0.72767,3.27454 0.97147,4.41362 1.33556,6.24 0.21051,1.056 0.49367,2.352 0.62923,2.88 0.13557,0.528 0.41873,1.824 0.62924,2.88 0.43154,2.16476 0.69273,3.38581 1.88237,8.8 0.17403,0.792 0.48865,2.304 0.69916,3.36 0.21051,1.056 0.49367,2.352 0.62923,2.88 0.13557,0.528 0.41873,1.824 0.62924,2.88 0.43631,2.18869 0.78591,3.84974 1.24597,5.92 0.72767,3.27454 0.97147,4.41362 1.33556,6.24 0.21051,1.056 0.49367,2.352 0.62923,2.88 0.13557,0.528 0.41873,1.824 0.62924,2.88 0.4632,2.3236 0.81373,3.98174 1.26836,6 0.53579,2.3785 0.89871,4.08094 1.31317,6.16 0.21051,1.056 0.49367,2.352 0.62923,2.88 0.13557,0.528 0.41873,1.824 0.62924,2.88 0.21051,1.056 0.5095,2.496 0.66441,3.2 0.15492,0.704 0.37066,1.748 0.47943,2.32 l 0.19777,1.04 h -46.10542 c -25.357984,0 -46.105423,-0.0614 -46.105423,-0.13648 z"
       id="path4586"
       inkscape:connector-curvature="0" />
    <path
       style="fill:#123411;stroke-width:0.31999999"
       d="m 78.079997,234.93732 c 0,-0.37411 1.752352,-8.64425 5.741622,-27.09733 0.597411,-2.76342 1.463194,-6.79581 3.538377,-16.48 0.528,-2.464 1.392,-6.496 1.92,-8.96 0.528,-2.464 1.392,-6.496 1.92,-8.96 0.528,-2.464 1.400048,-6.532 1.937882,-9.04 0.537837,-2.508 1.275635,-5.856 1.639552,-7.44 0.36392,-1.584 0.730582,-4.15027 0.814809,-5.70282 0.144471,-2.66304 0.0971,-2.93665 -0.836736,-4.83355 -0.781718,-1.58789 -1.733776,-2.70249 -4.527369,-5.30029 -5.590601,-5.19879 -8.867728,-9.56189 -11.975372,-15.94377 -1.003741,-2.06129 -1.768388,-3.25589 -2.08,-3.24958 -0.271021,0.006 -1.068765,0.36476 -1.772765,0.79836 -0.704,0.43361 -1.561002,0.78911 -1.904448,0.79002 -0.8444,0.002 -3.80056,-1.82062 -4.331613,-2.67097 -0.260697,-0.41745 -0.526742,-2.37357 -0.68088,-5.00628 -0.172966,-2.95422 -0.458208,-4.91321 -0.901728,-6.1929 -0.356803,-1.02948 -0.869983,-3.03814 -1.140406,-4.46368 -0.270419,-1.42554 -0.920064,-3.92924 -1.443651,-5.563779 -1.628618,-5.084208 -1.608125,-9.060755 0.04669,-9.060755 1.173133,0 3.467734,1.570624 5.911571,4.046391 2.223866,2.252921 3.508106,2.917436 3.775539,1.953609 0.06104,-0.22 0.346589,-1.7192 0.634547,-3.331558 0.287959,-1.612355 0.959808,-4.255341 1.492996,-5.873299 1.027471,-3.11785 3.928582,-9.178873 5.462742,-11.4128 0.505251,-0.735708 0.91864,-1.761232 0.91864,-2.27894 0,-1.043581 2.38912,-4.928512 4.684787,-7.617901 0.767366,-0.898976 1.395212,-1.959555 1.395212,-2.356841 0,-1.086682 4.954535,-5.331415 8.8,-7.53929 1.838643,-1.055657 2.05537,-1.294432 1.858438,-2.0475 -0.115993,-0.443556 0.391805,-0.710551 2.679227,-1.408701 5.53847,-1.690419 6.97029,-1.898333 13.86234,-2.012918 3.608,-0.05999 8.73757,-0.20256 11.39905,-0.316826 5.61048,-0.240877 9.09254,0.211312 14.98976,1.946605 4.87459,1.434377 6.57118,2.210454 6.57118,3.005878 0,0.386803 0.46544,0.915635 1.2,1.36344 4.23644,2.582617 4.66488,2.916518 4.1279,3.217027 -0.29034,0.162486 -0.5279,0.422298 -0.5279,0.577363 0,0.155063 1.08291,1.177683 2.40647,2.272493 3.64173,3.012339 9.11353,9.779993 9.11353,11.271843 0,0.322636 0.44207,1.229139 0.98238,2.014444 2.67982,3.894992 5.80351,11.72824 7.06925,17.727481 0.5965,2.827238 1.23567,2.920339 3.35284,0.488375 1.62972,-1.872052 4.34921,-3.688375 5.52241,-3.688375 1.6913,0 1.65581,3.900567 -0.0864,9.493044 -0.59401,1.90682 -1.24272,4.41811 -1.44157,5.58064 -0.19885,1.16253 -0.65572,2.96253 -1.01527,4 -0.44902,1.29563 -0.73296,3.23945 -0.90673,6.20743 -0.15413,2.63271 -0.42018,4.58883 -0.68088,5.00628 -0.51035,0.81721 -3.47297,2.6726 -4.2675,2.6726 -0.30819,0 -0.99238,-0.22342 -1.52044,-0.49648 -0.52806,-0.27307 -1.20491,-0.41225 -1.50411,-0.30929 -0.2992,0.10295 -1.12001,1.43879 -1.82401,2.96851 -2.55948,5.56154 -6.13793,10.29798 -11.65958,15.43264 -4.44796,4.13622 -5.46042,5.90485 -5.46042,9.53861 0,1.31547 0.14031,2.91247 0.31181,3.54889 0.17148,0.63642 0.74748,3.20912 1.28,5.71712 0.5325,2.508 1.40019,6.576 1.92819,9.04 0.528,2.464 1.392,6.496 1.92,8.96 0.528,2.464 1.38391,6.46 1.90201,8.88 0.5181,2.42 1.3821,6.452 1.92,8.96 0.5379,2.508 1.4019,6.54 1.92,8.96 0.5181,2.42 1.3821,6.452 1.92,8.96 0.5379,2.508 1.40212,6.54 1.92049,8.96 0.51837,2.42 1.31037,6.08672 1.76,8.14827 0.44963,2.06155 0.8175,3.89755 0.8175,4.08 0,0.18245 -0.56406,0.33173 -1.25348,0.33173 -1.25277,0 -1.25369,-9.6e-4 -1.61604,-1.68 -0.19941,-0.924 -4.11065,-19.17316 -8.69163,-40.5537 l -8.32908,-38.8737 0.10512,-3.6863 c 0.1497,-5.24999 0.63224,-6.13283 6.63095,-12.13187 4.70717,-4.70743 7.24707,-7.99417 9.79443,-12.67443 1.27237,-2.33771 2.45577,-3.82537 3.4878,-4.38452 0.33444,-0.18119 1.54386,-0.4455 2.68761,-0.58734 3.17274,-0.39347 3.54357,-0.9064 4.06747,-5.62595 0.23214,-2.0912 0.79121,-5.17018 1.24237,-6.84218 1.53102,-5.6739 2.75448,-10.857482 2.75448,-11.670222 0,-1.091334 -0.75618,-1.044659 -2.52815,0.156042 -2.00105,1.355926 -3.79495,1.327066 -5.33442,-0.08582 -0.98078,-0.900131 -1.30691,-1.620633 -2.42497,-5.357309 -1.65738,-5.53919 -3.64448,-9.840086 -8.64113,-18.702984 -0.91378,-1.620851 -4.20043,-5.329699 -10.935,-12.339705 -2.95345,-3.074247 -4.75951,-4.169037 -9.05456,-5.488656 -2.20905,-0.678714 -4.97615,-1.382698 -6.14911,-1.56441 -2.8481,-0.441216 -23.60516,-0.17448 -25.97265,0.33376 -4.80405,1.031306 -6.40059,1.677837 -8.64,3.498835 -0.792005,0.644023 -2.633963,2.019527 -4.093243,3.056679 -3.122947,2.219561 -4.593863,3.772419 -7.468736,7.884815 -2.240589,3.205075 -3.255248,5.007091 -3.986761,7.080419 -0.245216,0.695021 -1.221568,2.678358 -2.169671,4.407411 -2.472054,4.508298 -3.839206,7.86792 -5.205174,12.791145 -0.990045,3.56832 -1.377283,4.50096 -2.22551,5.36 -1.677975,1.699366 -4.03272,1.38055 -6.843818,-0.926602 C 66.80292,95.473811 65.921134,95.398023 65.916984,96.4 c -0.0032,0.755667 1.816605,8.40962 2.910073,12.24 0.351703,1.232 0.794096,3.752 0.983101,5.6 0.566467,5.53872 1.145594,6.31376 4.458982,5.96744 3.353495,-0.35051 4.514448,0.47344 6.919558,4.91094 3.063047,5.65142 5.277482,8.49375 10.970854,14.08161 2.832634,2.78015 3.975783,4.1495 4.674947,5.6 0.886407,1.83897 0.925207,2.10908 0.919306,6.4 l -0.0062,4.48 -5.521235,25.44 c -3.036681,13.992 -6.931622,31.848 -8.655427,39.68 l -3.134192,14.24 -1.178409,0.0993 c -0.648115,0.0546 -1.1784,-0.0363 -1.1784,-0.20199 z"
       id="path4584"
       inkscape:connector-curvature="0" />
  </g>
</svg>
